# xmcd
#
# Track frame offsets:
#	150
#	61178
#	108413
#	159724
#	226761
#
# Disc length: 3563 seconds
#
# Revision: 1
# Processed by: cddbd v1.5.2PL0 Copyright (c) Steve Scherf et al.
# Submitted via: audiograbber 1.83.01
#
DISCID=340de905
DTITLE=Grateful Dead - 82-07-31 Manor Downs, Austin TX
DYEAR=1900
DGENRE=
TTITLE0=Scarlet Begonias
TTITLE1=Fire On The Mountain
TTITLE2=Estimated Prophet
TTITLE3=Eyes Of The World
TTITLE4=Drums
EXTD=
EXTT0=
EXTT1=
EXTT2=
EXTT3=
EXTT4=
PLAYORDER=
